<?xml version="1.0" encoding="UTF-8" standalone="no"?>
<svg
   viewBox="0 0 32 32"
   version="1.1"
   id="svg7"
   sodipodi:docname="termometro-icona-modificato.svg"
   inkscape:export-filename="termometro-icona-modificato.png"
   inkscape:export-xdpi="300"
   inkscape:export-ydpi="300"
   inkscape:version="1.4 (e7c3feb1, 2024-10-09)"
   width="32"
   height="32"
   xmlns:inkscape="http://www.inkscape.org/namespaces/inkscape"
   xmlns:sodipodi="http://sodipodi.sourceforge.net/DTD/sodipodi-0.dtd"
   xmlns="http://www.w3.org/2000/svg"
   xmlns:svg="http://www.w3.org/2000/svg">
  <defs
     id="defs7" />
  <sodipodi:namedview
     id="namedview7"
     pagecolor="#ffffff"
     bordercolor="#000000"
     borderopacity="0.25"
     inkscape:showpageshadow="2"
     inkscape:pageopacity="0.0"
     inkscape:pagecheckerboard="0"
     inkscape:deskcolor="#d1d1d1"
     inkscape:zoom="13"
     inkscape:cx="1.5384615"
     inkscape:cy="19.038462"
     inkscape:window-width="1920"
     inkscape:window-height="1200"
     inkscape:window-x="0"
     inkscape:window-y="0"
     inkscape:window-maximized="0"
     inkscape:current-layer="svg7" />
  <rect
     width="32"
     height="32"
     fill="#000000"
     id="rect1"
     x="0"
     y="0" />
  <circle
     cx="16"
     cy="24"
     fill="#333333"
     stroke="#666666"
     stroke-width="1"
     id="circle1"
     r="4" />
  <rect
     x="14.5"
     y="5"
     width="3"
     height="19"
     fill="#333333"
     stroke="#666666"
     stroke-width="1"
     rx="1.5"
     ry="1.5"
     id="rect2" />
  <circle
     cx="16"
     cy="24"
     fill="#222222"
     id="circle2"
     r="3" />
  <rect
     x="15.5"
     y="6"
     width="1"
     height="18"
     fill="#ff3333"
     id="rect3" />
  <rect
     x="15.5"
     y="15"
     width="1"
     height="9"
     fill="#33ccff"
     id="rect4" />
  <circle
     cx="16"
     cy="24"
     fill="#cccccc"
     id="circle4"
     r="1.5" />
  <line
     x1="12"
     y1="8"
     x2="14.5"
     y2="8"
     stroke="#666666"
     stroke-width="1"
     id="line4" />
  <line
     x1="12"
     y1="12"
     x2="14.5"
     y2="12"
     stroke="#666666"
     stroke-width="1"
     id="line5" />
  <line
     x1="12"
     y1="16"
     x2="14.5"
     y2="16"
     stroke="#666666"
     stroke-width="1"
     id="line6" />
  <line
     x1="12"
     y1="20"
     x2="14.5"
     y2="20"
     stroke="#666666"
     stroke-width="1"
     id="line7" />
  <path
     style="opacity:0.99;fill:#ffffff;stroke:#000000;stroke-width:0;stroke-linejoin:bevel"
     d="M 14.855673,28.301721 C 13.771293,28.010065 12.666057,27.152175 12.128043,26.184522 11.788031,25.57299 11.538462,24.648282 11.538462,24 c 0,-1.068685 0.507176,-2.307139 1.265423,-3.089986 L 13.201015,20.5 H 12.600507 12 V 20 19.5 h 1 1 V 18 16.5 H 13 12 V 16 15.5 h 1 1 V 14 12.5 H 13 12 V 12 11.5 h 1 1 V 10 8.5 H 13 12 V 8 7.5 h 0.988398 0.988398 l 0.04781,-0.7278483 C 14.080131,5.9268802 14.205609,5.5761092 14.59991,5.1639072 15.000154,4.7454916 15.39645,4.5803018 16,4.5803018 c 0.60355,0 0.999846,0.1651898 1.40009,0.5836054 0.597945,0.625092 0.556883,0.08526 0.59991,7.8868278 l 0.03846,6.973811 0.4785,0.3195 c 1.164902,0.777816 1.944576,2.243666 1.944576,3.655954 0,1.961438 -1.436002,3.806929 -3.350176,4.305508 -0.562562,0.146529 -1.703938,0.144613 -2.255689,-0.0038 z m 2.214253,-0.947456 c 1.172277,-0.364853 2.031579,-1.285922 2.353792,-2.52298 0.305723,-1.173749 -0.04861,-2.419427 -0.943885,-3.318287 l -0.434336,-0.436075 -0.04198,0.276969 -0.04198,0.27697 L 17.480769,21.366215 17,21.101569 v -7.458451 c 0,-8.1883506 0.02353,-7.7768944 -0.459021,-8.0264313 -0.28904,-0.1494689 -0.792918,-0.1494689 -1.081958,0 C 14.976469,5.8662236 15,5.4547674 15,13.643118 v 7.458451 L 14.519231,21.366215 14.038462,21.630862 14,21.353892 13.96154,21.076923 13.567879,21.443308 c -0.44929,0.418158 -0.817246,1.056038 -0.988555,1.713734 -0.458345,1.759709 0.582293,3.636343 2.325443,4.193584 0.599385,0.191608 1.556049,0.193216 2.165161,0.0036 z"
     id="path1" />
  <path
     style="opacity:0.99;fill:#ffffff;stroke:#000000;stroke-width:0;stroke-linejoin:bevel"
     d="m 15.218453,25.201032 c -0.919002,-0.582814 -0.886888,-1.886359 0.06015,-2.441358 0.465402,-0.272743 0.977402,-0.272743 1.442804,0 1.281227,0.75085 0.763198,2.663403 -0.721402,2.663403 -0.343441,0 -0.502818,-0.04528 -0.781547,-0.222045 z"
     id="path2" />
</svg>
