<?xml version="1.0" encoding="UTF-8" standalone="no"?>
<svg
   viewBox="0 0 32 32"
   version="1.1"
   id="svg5"
   sodipodi:docname="umidita-icona.svg"
   inkscape:export-filename="umidita-icona.png"
   inkscape:export-xdpi="96"
   inkscape:export-ydpi="96"
   inkscape:version="1.4 (e7c3feb1, 2024-10-09)"
   xmlns:inkscape="http://www.inkscape.org/namespaces/inkscape"
   xmlns:sodipodi="http://sodipodi.sourceforge.net/DTD/sodipodi-0.dtd"
   xmlns="http://www.w3.org/2000/svg"
   xmlns:svg="http://www.w3.org/2000/svg">
  <sodipodi:namedview
     id="namedview5"
     pagecolor="#ffffff"
     bordercolor="#000000"
     borderopacity="0.25"
     inkscape:showpageshadow="2"
     inkscape:pageopacity="0.0"
     inkscape:pagecheckerboard="0"
     inkscape:deskcolor="#d1d1d1"
     inkscape:zoom="0.8125"
     inkscape:cx="16"
     inkscape:cy="15.384615"
     inkscape:window-width="1920"
     inkscape:window-height="1200"
     inkscape:window-x="0"
     inkscape:window-y="0"
     inkscape:window-maximized="0"
     inkscape:current-layer="svg5" />
  <rect
     width="32"
     height="32"
     fill="black"
     id="rect1" />
  <path
     d="M16,5 Q24,15 24,21 A8,8 0 1,1 8,21 Q8,15 16,5 Z"
     fill="#333333"
     stroke="#666666"
     stroke-width="1"
     id="path1" />
  <path
     d="M16,5 Q24,15 24,21 A8,8 0 1,1 8,21 Q8,15 16,5 Z"
     fill-opacity="0.5"
     fill="url(#gradient)"
     id="path2" />
  <defs
     id="defs3">
    <linearGradient
       id="gradient"
       x1="0%"
       y1="0%"
       x2="0%"
       y2="100%">
      <stop
         offset="0%"
         stop-color="#33ccff"
         stop-opacity="0.9"
         id="stop2" />
      <stop
         offset="100%"
         stop-color="#3366ff"
         stop-opacity="0.9"
         id="stop3" />
    </linearGradient>
  </defs>
  <path
     d="M16,14 Q20,19 20,22 A4,4 0 1,1 12,22 Q12,19 16,14 Z"
     fill="#ffffff"
     fill-opacity="0.15"
     id="path3" />
  <path
     d="M14,19 A1,1 0 1,0 14,21 A1,1 0 1,0 14,19 Z"
     fill="#ffffff"
     fill-opacity="0.7"
     id="path4" />
  <path
     d="M16,16 C14,17 16,20 15,22"
     stroke="#ffffff"
     stroke-width="0.5"
     stroke-opacity="0.5"
     fill="none"
     id="path5" />
</svg>
